<svg width="3850" height="1170" xmlns="http://www.w3.org/2000/svg" xmlns:xlink="http://www.w3.org/1999/xlink" overflow="hidden"><defs><clipPath id="clip0"><rect x="349" y="394" width="3850" height="1170"/></clipPath></defs><g clip-path="url(#clip0)" transform="translate(-349 -394)"><path d="M792.653 1086.32 792.653 1205.23 885.144 1205.23C916.374 1205.23 938.396 1199.69 951.208 1188.62 964.021 1177.54 970.427 1162.66 970.427 1143.97 970.427 1126.62 964.087 1112.67 951.408 1102.13 938.729 1091.59 916.507 1086.32 884.743 1086.32ZM792.653 863.298 792.653 974.606 871.53 974.606C899.825 974.606 919.51 969.735 930.588 959.992 941.665 950.249 947.204 936.169 947.204 917.751 947.204 900.668 941.665 887.321 930.588 877.712 919.51 868.102 900.225 863.298 872.731 863.298ZM1431.85 862.897 1431.85 982.214 1508.33 982.214C1516.6 982.214 1532.62 979.544 1556.38 974.206 1568.39 971.804 1578.2 965.664 1585.8 955.788 1593.41 945.912 1597.22 934.567 1597.22 921.755 1597.22 902.803 1591.21 888.255 1579.2 878.112 1567.19 867.969 1544.63 862.897 1511.53 862.897ZM3465.87 744.382 3951.95 744.382 3951.95 869.704 3647.65 869.704 3647.65 962.995 3929.93 962.995 3929.93 1082.71 3647.65 1082.71 3647.65 1198.42 3960.76 1198.42 3960.76 1331.35 3465.87 1331.35ZM2562.48 744.382 2744.26 744.382 2744.26 1331.35 2562.48 1331.35ZM1871.67 744.382 2052.65 744.382 2052.65 1102.42C2052.65 1134.42 2061.53 1159.43 2079.28 1177.43 2097.03 1195.43 2121.65 1204.43 2153.15 1204.43 2184.38 1204.43 2208.87 1195.56 2226.62 1177.83 2244.37 1160.09 2253.25 1134.95 2253.25 1102.42L2253.25 744.382 2434.22 744.382 2434.22 1094.09C2434.22 1128.77 2428.82 1161.51 2418.01 1192.32 2407.2 1223.13 2390.25 1250.07 2367.16 1273.14 2344.07 1296.22 2319.85 1312.42 2294.49 1321.76 2259.25 1334.83 2216.95 1341.36 2167.56 1341.36 2139 1341.36 2107.84 1339.36 2074.07 1335.36 2040.31 1331.36 2012.08 1323.42 1989.39 1311.55 1966.7 1299.68 1945.95 1282.81 1927.13 1260.94 1908.31 1239.07 1895.43 1216.53 1888.49 1193.32 1877.28 1155.97 1871.67 1122.9 1871.67 1094.09ZM1249.68 744.382 1551.97 744.382C1608.03 744.382 1650.87 749.186 1680.5 758.796 1710.13 768.405 1734.02 786.223 1752.17 812.248 1770.32 838.273 1779.39 869.971 1779.39 907.341 1779.39 939.906 1772.45 968 1758.56 991.623 1744.67 1015.25 1725.58 1034.4 1701.27 1049.08 1685.78 1058.42 1664.55 1066.16 1637.57 1072.3 1659.18 1079.52 1674.92 1086.73 1684.79 1093.94 1691.46 1098.75 1701.13 1109.04 1713.8 1124.8 1726.47 1140.56 1734.94 1152.72 1739.2 1161.27L1827.04 1331.35 1622.1 1331.35 1525.15 1151.98C1512.87 1128.76 1501.92 1113.68 1492.31 1106.74 1479.23 1097.66 1464.42 1093.12 1447.87 1093.12L1431.85 1093.12 1431.85 1331.35 1249.68 1331.35ZM609.675 744.382 949.206 744.382C1005.79 744.382 1049.24 758.395 1079.53 786.423 1109.83 814.45 1124.98 849.151 1124.98 890.524 1124.98 925.225 1114.17 954.987 1092.55 979.811 1078.13 996.361 1057.04 1009.44 1029.28 1019.05 1071.46 1029.19 1102.49 1046.61 1122.38 1071.3 1142.26 1095.99 1152.2 1127.02 1152.2 1164.39 1152.2 1194.82 1145.13 1222.18 1130.98 1246.47 1116.84 1270.76 1097.48 1289.98 1072.93 1304.13 1057.71 1312.94 1034.76 1319.34 1004.06 1323.35 963.22 1328.69 936.127 1331.35 922.78 1331.35L609.675 1331.35ZM3114.11 734.372C3189.11 734.372 3246.3 748.319 3285.68 776.213 3325.05 804.107 3348.47 848.483 3355.94 909.343L3184.98 919.352C3180.44 892.927 3170.9 873.708 3156.35 861.696 3141.8 849.684 3121.72 843.679 3096.09 843.679 3075 843.679 3059.12 848.15 3048.44 857.092 3037.77 866.034 3032.43 876.911 3032.43 889.724 3032.43 899.066 3036.83 907.474 3045.64 914.948 3054.18 922.689 3074.47 929.896 3106.5 936.569 3185.78 953.653 3242.57 970.936 3276.87 988.42 3311.17 1005.9 3336.12 1027.59 3351.74 1053.48 3367.36 1079.38 3375.16 1108.34 3375.16 1140.37 3375.16 1178 3364.75 1212.71 3343.93 1244.47 3323.11 1276.23 3294.02 1300.32 3256.65 1316.74 3219.28 1333.16 3172.16 1341.36 3115.31 1341.36 3015.48 1341.36 2946.34 1322.15 2907.91 1283.71 2869.47 1245.27 2847.71 1196.42 2842.64 1137.16L3015.21 1126.35C3018.95 1154.38 3026.56 1175.74 3038.03 1190.42 3056.72 1214.17 3083.41 1226.05 3118.11 1226.05 3144 1226.05 3163.96 1219.98 3177.97 1207.83 3191.98 1195.69 3198.99 1181.61 3198.99 1165.59 3198.99 1150.38 3192.32 1136.76 3178.97 1124.75 3165.62 1112.74 3134.66 1101.4 3086.08 1090.72 3006.54 1072.84 2949.81 1049.08 2915.91 1019.45 2881.75 989.821 2864.66 952.051 2864.66 906.14 2864.66 875.977 2873.41 847.482 2890.89 820.656 2908.37 793.83 2934.67 772.743 2969.77 757.394 3004.87 742.046 3052.98 734.372 3114.11 734.372Z" stroke="#000000" stroke-width="3" stroke-linejoin="round" stroke-miterlimit="10" fill="none" fill-rule="evenodd"/><text fill="#000000" fill-opacity="0" font-family="Arial,Arial_MSFontService,sans-serif" font-size="606.992" x="609.675" y="1265.49">BRUISE</text></g></svg>